<svg width="64" height="64" viewBox="0 0 64 64" fill="none" xmlns="http://www.w3.org/2000/svg">
    <!--
      Favicon Sederhana: Padi dan Tanah
      Dibuat untuk Sistem Rekomendasi Pemupukan Padi.
    -->

    <!-- Lapisan Tanah -->
    <path d="M-2 52 C10 49, 22 54, 32 54 C42 54, 54 49, 66 52 L66 66 L-2 66 Z" fill="#A0522D"/>

    <!-- Batang Padi -->
    <path d="M32 54 C32 40, 28 25, 36 14" stroke="#6B8E23" stroke-width="3.5" stroke-linecap="round"/>

    <!-- Daun Padi -->
    <path d="M32 42 C35 40, 45 37, 48 32" stroke="#6B8E23" stroke-width="3" stroke-linecap="round" fill="none"/>
    <path d="M32 48 C29 46, 20 45, 18 40" stroke="#6B8E23" stroke-width="3" stroke-linecap="round" fill="none"/>

    <!-- Butir Padi (Gabah) -->
    <g transform="translate(36, 14) rotate(15)">
      <circle cx="0" cy="0" r="3" fill="#FFD700" stroke="#DAA520" stroke-width="0.5"/>
      <circle cx="-5" cy="-4" r="3" fill="#FFD700" stroke="#DAA520" stroke-width="0.5"/>
      <circle cx="4" cy="-5" r="3" fill="#FFD700" stroke="#DAA520" stroke-width="0.5"/>
      <circle cx="-3" cy="-9" r="3" fill="#FFD700" stroke="#DAA520" stroke-width="0.5"/>
      <circle cx="2" cy="-12" r="3" fill="#FFD700" stroke="#DAA520" stroke-width="0.5"/>
    </g>
</svg>
